# xmcd
#
# Track frame offsets: 
#        150
#        18066
#        35101
#        51762
#        71085
#        91321
#        107749
#        123923
#        139800
#        156435
#        184219
#
# Disc length: 2462 seconds
#
# Revision: 0
# Processed by: cddbd v1.5.1PL2 Copyright (c) Steve Scherf et al.
# Submitted via: ExactAudioCopy v0.95b3
#
DISCID=97099c0b
DTITLE=Shimmer - (untitled)
DYEAR=2005
DGENRE=Blues-Rock
TTITLE0=Don't Trip On Your Way Out
TTITLE1=Here I Am (Antidote)
TTITLE2=Needle To The Vinyl
TTITLE3=Sweet Love
TTITLE4=Crazy But True
TTITLE5=Like A Feather
TTITLE6=Wicked
TTITLE7=Shoulda Known
TTITLE8=The Violence Of Love
TTITLE9=Who Loves Ya
TTITLE10=(nothing)
EXTD=
EXTT0=
EXTT1=
EXTT2=
EXTT3=
EXTT4=
EXTT5=
EXTT6=
EXTT7=
EXTT8=
EXTT9=
EXTT10=
PLAYORDER=
